#!OML:ASF E:\acrobat2\Project_11_07_03\Capture day 1\Session 1\Acrobat.ASF
:FULLY-SPECIFIED
:DEGREES
49
root 6.04086 17.9357 -23.4972 -3.91284 77.6878 -7.9759
lowerback -4.55875 -6.80099 -2.81111
upperback 0.706409 -9.05109 4.07618
thorax 4.37675 -4.6207 4.97153
lowerneck 11.4008 -23.4953 -10.2112
upperneck -2.56053 -32.1822 13.162
head 1.21717 -16.425 4.95155
rclavicle 8.25453e-014 -1.27222e-014
rhumerus -34.9021 5.91304 -77.9576
rradius 24.3882
rwrist 0.397362
rhand -5.65917 -43.5663
rfingers 7.12502
rthumb 20.16 -72.5403
lclavicle 8.25453e-014 -1.27222e-014
lhumerus -38.3321 1.95162 80.7755
lradius 33.2954
lwrist 13.5056
lhand -11.1278 -12.238
lfingers 7.12502
lthumb 14.8973 17.2064
rfemur 0.977765 13.5687 9.43344
rtibia -0.85151
rfoot -18.7238 -31.7329
rtoes -7.4393
lfemur 9.05857 -4.80366 -6.46926
ltibia -0.303394
lfoot -29.7294 1.80654
ltoes 46.566
50
root 6.04416 17.9351 -23.4977 -4.27009 77.692 -8.35035
lowerback -4.62424 -6.77087 -2.70204
upperback 0.717076 -9.0157 4.06866
thorax 4.40206 -4.60011 4.90011
lowerneck 11.3403 -23.5174 -10.0721
upperneck -2.60469 -32.1867 13.1297
head 1.18728 -16.426 4.93215
rclavicle 6.31638e-014 -3.4191e-014
rhumerus -34.8906 5.56998 -77.8789
rradius 24.4676
rwrist 0.658634
rhand -5.4134 -43.4915
rfingers 7.12502
rthumb 20.3962 -72.4404
lclavicle 6.31638e-014 -3.4191e-014
lhumerus -38.2069 1.897 80.8045
lradius 33.0016
lwrist 13.2764
lhand -11.0019 -12.2751
lfingers 7.12502
lthumb 15.0187 17.1602
rfemur 0.986571 13.5698 9.53395
rtibia -0.844563
rfoot -18.7528 -31.7594
rtoes -7.85616
lfemur 9.06264 -4.80028 -6.35927
ltibia -0.304106
lfoot -29.7453 1.51496
ltoes 47.216
51
root 6.0476 17.9336 -23.4978 -4.67086 77.683 -8.77148
lowerback -4.6837 -6.77702 -2.55931
upperback 0.707919 -9.02995 4.0501
thorax 4.40175 -4.60242 4.79541
lowerneck 11.356 -23.4998 -9.93585
upperneck -2.78467 -32.1342 13.1736
head 1.11211 -16.4046 4.95547
rclavicle -2.18663e-015 -1.35174e-014
rhumerus -34.8165 5.29048 -77.8514
rradius 24.3612
rwrist 0.882191
rhand -5.29878 -43.2181
rfingers 7.12502
rthumb 20.5063 -72.1551
lclavicle -2.18663e-015 -1.35174e-014
lhumerus -38.1434 2.07485 80.7008
lradius 32.6983
lwrist 12.9301
lhand -10.8673 -12.3764
lfingers 7.12502
lthumb 15.1483 17.0492
rfemur 0.989866 13.695 9.65737
rtibia -0.840786
rfoot -18.8891 -31.8725
rtoes -7.94496
lfemur 9.05663 -4.78195 -6.23216
ltibia -0.301435
lfoot -29.7633 1.37794
ltoes 47.5784
52
root 6.05031 17.9322 -23.4991 -4.73821 77.7026 -8.83236
lowerback -4.68534 -6.78556 -2.54897
upperback 0.671266 -9.04106 4.05781
thorax 4.3652 -4.60665 4.79877
lowerneck 11.4751 -23.2451 -10.0177
upperneck -2.86624 -31.8043 13.4241
head 1.08735 -16.2514 5.06729
rclavicle 6.14245e-014 -4.29375e-014
rhumerus -34.6665 4.76865 -77.557
rradius 24.1348
rwrist 0.826643
rhand -5.09341 -42.4671
rfingers 7.12502
rthumb 20.7037 -71.3827
lclavicle 6.14245e-014 -4.29375e-014
lhumerus -38.1173 2.25564 80.7046
lradius 32.4404
lwrist 12.7277
lhand -10.5977 -12.3786
lfingers 7.12502
lthumb 15.408 17.0272
rfemur 1.04028 13.969 9.71649
rtibia -0.865085
rfoot -19.1828 -32.0389
rtoes -7.29477
lfemur 9.0293 -4.63282 -6.17227
ltibia -0.238558
lfoot -29.583 1.51113
ltoes 47.2881
53
root 6.05281 17.9335 -23.4965 -2.89421 77.7191 -7.00529
lowerback -4.76865 -6.77707 -3.05287
upperback 0.612962 -9.00022 4.01802
thorax 4.419 -4.59928 5.0291
lowerneck 11.5933 -23.2526 -9.99546
upperneck -3.12503 -31.7988 13.5103
head 1.00239 -16.2579 5.12103
rclavicle 1.70458e-014 1.35174e-014
rhumerus -34.8273 5.4497 -77.9397
rradius 24.3062
rwrist 0.881548
rhand -5.93928 -42.7974
rfingers 7.12502
rthumb 19.8907 -71.7995
lclavicle 1.70458e-014 1.35174e-014
lhumerus -38.1512 2.23992 80.8246
lradius 32.2904
lwrist 12.652
lhand -10.4637 -12.1897
lfingers 7.12502
lthumb 15.5371 17.2061
rfemur 1.01827 14.3838 9.26537
rtibia -0.928679
rfoot -19.7736 -32.1592
rtoes -5.73676
lfemur 8.92821 -4.56428 -6.61823
ltibia -0.148649
lfoot -29.5182 1.63421
ltoes 47.0206
54
root 6.05747 17.9355 -23.4891 0.137964 77.6489 -4.0132
lowerback -4.95146 -6.8035 -3.84341
upperback 0.546948 -8.98661 3.94506
thorax 4.56307 -4.614 5.36666
lowerneck 11.6805 -23.205 -10.0447
upperneck -3.3225 -31.733 13.5253
head 0.932074 -16.2299 5.15986
rclavicle 7.30534e-015 2.62396e-014
rhumerus -34.7491 5.47912 -77.7614
rradius 24.3427
rwrist 0.602395
rhand -5.53417 -42.1769
rfingers 7.12502
rthumb 20.2801 -71.1381
lclavicle 7.30534e-015 2.62396e-014
lhumerus -38.2182 2.35674 80.9103
lradius 32.1423
lwrist 12.5543
lhand -10.4558 -12.0005
lfingers 7.12502
lthumb 15.5447 17.3948
rfemur 0.891649 14.7622 8.45581
rtibia -0.979585
rfoot -20.2657 -32.2346
rtoes -4.61859
lfemur 8.83764 -4.78985 -7.44026
ltibia -0.150389
lfoot -29.8967 1.50057
ltoes 47.2479
55
root 6.06367 17.9365 -23.4836 1.43866 77.5236 -2.66979
lowerback -5.05935 -6.76008 -4.19803
upperback 0.558555 -8.90463 3.89171
thorax 4.67173 -4.58433 5.50099
lowerneck 11.6138 -23.1763 -10.0596
upperneck -3.34213 -31.6925 13.5158
head 0.931623 -16.2075 5.15515
rclavicle 1.12313e-014 -1.66979e-014
rhumerus -34.6994 5.53443 -77.7236
rradius 24.4433
rwrist 0.23067
rhand -5.46478 -42.26
rfingers 7.12502
rthumb 20.3468 -71.2141
lclavicle 1.12313e-014 -1.66979e-014
lhumerus -38.137 2.40295 80.9904
lradius 31.8953
lwrist 12.4437
lhand -10.3818 -11.9134
lfingers 7.12502
lthumb 15.6159 17.4763
rfemur 0.844836 14.6538 8.05167
rtibia -0.961642
rfoot -19.8972 -32.2187
rtoes -5.73821
lfemur 8.94464 -5.05319 -7.86259
ltibia -0.238594
lfoot -30.2984 1.34283
ltoes 47.5666
56
root 6.06728 17.9363 -23.4812 1.92492 77.4425 -2.14189
lowerback -5.13265 -6.67045 -4.34468
upperback 0.594646 -8.77302 3.84074
thorax 4.74721 -4.52429 5.53404
lowerneck 11.48 -23.1958 -9.99439
upperneck -3.27643 -31.7072 13.5106
head 0.962161 -16.2104 5.12645
rclavicle -1.92821e-014 4.45278e-014
rhumerus -34.63 5.2796 -77.6284
rradius 24.5585
rwrist -0.080299
rhand -5.18021 -42.499
rfingers 7.12502
rthumb 20.6203 -71.4238
lclavicle -1.92821e-014 4.45278e-014
lhumerus -37.9722 2.29381 81.1007
lradius 31.6153
lwrist 12.3955
lhand -10.408 -11.8345
lfingers 7.12502
lthumb 15.5907 17.5571
rfemur 0.821183 14.3832 7.85273
rtibia -0.923138
rfoot -19.5303 -32.0551
rtoes -6.56722
lfemur 9.03772 -5.18355 -8.03134
ltibia -0.278458
lfoot -30.4821 1.57299
ltoes 47.4696
57
root 6.06914 17.935 -23.4822 1.8361 77.4631 -2.20476
lowerback -5.14871 -6.62035 -4.34767
upperback 0.628118 -8.70577 3.83911
thorax 4.7824 -4.49235 5.53879
lowerneck 11.3244 -23.2343 -9.90121
upperneck -3.24151 -31.7407 13.4591
head 0.976828 -16.2213 5.0838
rclavicle -3.54831e-014 4.77083e-015
rhumerus -34.606 5.28035 -77.717
rradius 24.6667
rwrist 0.157951
rhand -5.22345 -42.5442
rfingers 7.12502
rthumb 20.5787 -71.4734
lclavicle -3.54831e-014 4.77083e-015
lhumerus -37.7797 2.32845 81.1724
lradius 31.3078
lwrist 12.2798
lhand -10.4131 -11.8241
lfingers 7.12502
lthumb 15.5859 17.5679
rfemur 0.89118 14.3969 7.85939
rtibia -0.994709
rfoot -19.5504 -32.0371
rtoes -6.24752
lfemur 9.07236 -5.27186 -8.04004
ltibia -0.276793
lfoot -30.5064 1.81014
ltoes 47.2655
58
root 6.07123 17.9337 -23.4859 0.740153 77.5303 -3.24939
lowerback -5.11385 -6.56264 -4.04569
upperback 0.67731 -8.64811 3.85355
thorax 4.76283 -4.45586 5.39731
lowerneck 11.2547 -23.2744 -9.82313
upperneck -3.30836 -31.7761 13.4759
head 0.962023 -16.2388 5.07604
rclavicle 1.54555e-014 -2.54444e-014
rhumerus -34.5846 5.09641 -77.7774
rradius 24.9471
rwrist 0.144832
rhand -5.21363 -43.6492
rfingers 7.12502
rthumb 20.5881 -72.5774
lclavicle 1.54555e-014 -2.54444e-014
lhumerus -37.6118 2.39709 81.1318
lradius 30.9684
lwrist 11.979
lhand -10.1836 -12.0708
lfingers 7.12502
lthumb 15.8068 17.3039
rfemur 1.07493 14.6093 8.19798
rtibia -1.10671
rfoot -19.6663 -32.2355
rtoes -5.88644
lfemur 9.1383 -5.19105 -7.76461
ltibia -0.268371
lfoot -30.3273 1.56605
ltoes 47.5158
